<svg width="68" height="69" viewBox="0 0 68 69" fill="none" xmlns="http://www.w3.org/2000/svg">
<path d="M34.0044 68.0397C52.7349 68.0397 67.9106 52.864 67.9106 34.1335C67.9106 15.403 52.7349 0.227234 34.0044 0.227234C15.2739 0.227234 0.0981445 15.403 0.0981445 34.1335C0.0981445 52.864 15.2739 68.0397 34.0044 68.0397ZM18.145 28.1179H34.0044V18.4245C34.0044 16.9616 35.7817 16.2233 36.8071 17.2624L52.4341 32.9714C53.0767 33.614 53.0767 34.6393 52.4341 35.2819L36.8071 51.0046C35.7681 52.0436 34.0044 51.3054 34.0044 49.8425V40.1491H18.145C17.2427 40.1491 16.5044 39.4108 16.5044 38.5085V29.7585C16.5044 28.8561 17.2427 28.1179 18.145 28.1179Z" fill="black"/>
</svg>
