<svg xmlns="http://www.w3.org/2000/svg" width="68" height="68" viewBox="0 0 68 68"><defs><mask id="7by6b" width="2" height="2" x="-1" y="-1"><path fill="#fff" d="M14 9h40v40H14z"/><path d="M34 9c11.046 0 20 8.954 20 20s-8.954 20-20 20-20-8.954-20-20S22.954 9 34 9z"/></mask><filter id="7by6a" width="100" height="105" x="-16" y="-21" filterUnits="userSpaceOnUse"><feOffset dy="5" in="SourceGraphic" result="FeOffset1035Out"/><feGaussianBlur in="FeOffset1035Out" result="FeGaussianBlur1036Out" stdDeviation="8 8"/></filter><linearGradient id="7by6c" x1="14" x2="54" y1="29" y2="29" gradientUnits="userSpaceOnUse"><stop offset="0" stop-color="#fd712c"/><stop offset="1" stop-color="#f21780"/></linearGradient><clipPath id="7by6d"><path fill="#fff" d="M11 52V6h46v46zm3-23c0 11.046 8.954 20 20 20s20-8.954 20-20S45.046 9 34 9s-20 8.954-20 20z"/></clipPath></defs><g><g><g filter="url(#7by6a)"><path fill="none" d="M34 9c11.046 0 20 8.954 20 20s-8.954 20-20 20-20-8.954-20-20S22.954 9 34 9z" mask="url(&quot;#7by6b&quot;)"/><path fill-opacity=".1" d="M34 9c11.046 0 20 8.954 20 20s-8.954 20-20 20-20-8.954-20-20S22.954 9 34 9z"/></g><path d="M34 9c11.046 0 20 8.954 20 20s-8.954 20-20 20-20-8.954-20-20S22.954 9 34 9z"/><path fill="url(#7by6c)" d="M34 9c11.046 0 20 8.954 20 20s-8.954 20-20 20-20-8.954-20-20S22.954 9 34 9z"/><path fill="none" stroke="#000" stroke-linecap="round" stroke-linejoin="round" stroke-miterlimit="20" stroke-opacity=".1" stroke-width="6" d="M34 9c11.046 0 20 8.954 20 20s-8.954 20-20 20-20-8.954-20-20S22.954 9 34 9z" clip-path="url(&quot;#7by6d&quot;)"/></g></g></svg>