<svg xmlns="http://www.w3.org/2000/svg" width="40" height="40" viewBox="0 0 40 40"><defs><clipPath id="12bfa"><path fill="#fff" d="M20 0c11.046 0 20 8.954 20 20s-8.954 20-20 20S0 31.046 0 20 8.954 0 20 0z"/></clipPath></defs><g><g><path fill="#fff" d="M20 0c11.046 0 20 8.954 20 20s-8.954 20-20 20S0 31.046 0 20 8.954 0 20 0z"/><path fill="none" stroke="#eee" stroke-linecap="round" stroke-linejoin="round" stroke-miterlimit="20" stroke-width="2" d="M20 0c11.046 0 20 8.954 20 20s-8.954 20-20 20S0 31.046 0 20 8.954 0 20 0z" clip-path="url(&quot;#12bfa&quot;)"/></g></g></svg>