<svg width="68" height="69" viewBox="0 0 68 69" fill="none" xmlns="http://www.w3.org/2000/svg">
<path d="M34.0043 0.227234C15.2738 0.227234 0.0980225 15.403 0.0980225 34.1335C0.0980225 52.864 15.2738 68.0397 34.0043 68.0397C52.7347 68.0397 67.9105 52.864 67.9105 34.1335C67.9105 15.403 52.7347 0.227234 34.0043 0.227234ZM49.8636 40.1491H34.0043V49.8425C34.0043 51.3054 32.2269 52.0436 31.2015 51.0046L15.5746 35.2956C14.932 34.653 14.932 33.6276 15.5746 32.985L31.2015 17.2624C32.2406 16.2233 34.0043 16.9616 34.0043 18.4245V28.1179H49.8636C50.766 28.1179 51.5043 28.8561 51.5043 29.7585V38.5085C51.5043 39.4108 50.766 40.1491 49.8636 40.1491Z" fill="black"/>
</svg>
